HIERARCHY
ROOT root
{
	OFFSET	0	13.1	24.9
	CHANNELS 6  Xposition Yposition Zposition Xrotation Yrotation Zrotation
	JOINT spine_1
	{
		OFFSET	0	9.99999	0
		CHANNELS 3  Xrotation Yrotation Zrotation
		JOINT spine_2
		{
			OFFSET	0	112	-10
			CHANNELS 3  Xrotation Yrotation Zrotation
			JOINT spine_3
			{
				OFFSET	0	206.5	19.3
				CHANNELS 3  Xrotation Yrotation Zrotation
				JOINT spine_4
				{
					OFFSET	0	110.4	14.6
					CHANNELS 3  Xrotation Yrotation Zrotation
					JOINT neck_1
					{
						OFFSET	0	71.8	-50.3
						CHANNELS 3  Xrotation Yrotation Zrotation
						JOINT neck_2
						{
							OFFSET	0	86.2	-25.8
							CHANNELS 3  Xrotation Yrotation Zrotation
							JOINT head_ee
							{
								OFFSET	0	179.8	-8.7
								CHANNELS 3  Xrotation Yrotation Zrotation
								End Site
								{
									OFFSET	1	0	0
								}
							}
						}
					}
					JOINT left_clavicle
					{
						OFFSET	-43.2	22.4	-70.8
						CHANNELS 3  Xrotation Yrotation Zrotation
						JOINT left_shoulder
						{
							OFFSET	-93.9	-5.79999	48.7
							CHANNELS 3  Xrotation Yrotation Zrotation
							JOINT left_elbow
							{
								OFFSET	-291.4	-30.8	15.2
								CHANNELS 3  Xrotation Yrotation Zrotation
								JOINT left_lowarm_twist
								{
									OFFSET	-110.7	-3.89999	13.6
									CHANNELS 3  Xrotation Yrotation Zrotation
									JOINT left_hand
									{
										OFFSET	-110.7	-3.89999	13.6
										CHANNELS 3  Xrotation Yrotation Zrotation
										JOINT left_ee
										{
											OFFSET	-80.8	-5.10001	12.1
											CHANNELS 3  Xrotation Yrotation Zrotation
											End Site
											{
												OFFSET	1	0	0
											}
										}
									}
								}
							}
						}
					}
					JOINT right_clavicle
					{
						OFFSET	43.2	22.4	-70.8
						CHANNELS 3  Xrotation Yrotation Zrotation
						JOINT right_shoulder
						{
							OFFSET	93.9	-5.79999	48.7
							CHANNELS 3  Xrotation Yrotation Zrotation
							JOINT right_elbow
							{
								OFFSET	291.4	-30.8	15.2
								CHANNELS 3  Xrotation Yrotation Zrotation
								JOINT right_lowarm_twist
								{
									OFFSET	110.7	-3.89999	13.6
									CHANNELS 3  Xrotation Yrotation Zrotation
									JOINT right_hand
									{
										OFFSET	110.7	-3.89999	13.6
										CHANNELS 3  Xrotation Yrotation Zrotation
										JOINT right_ee
										{
											OFFSET	80.8	-5.10001	12.1
											CHANNELS 3  Xrotation Yrotation Zrotation
											End Site
											{
												OFFSET	1	0	0
											}
										}
									}
								}
							}
						}
					}
				}
			}
		}
	}
	JOINT left_hip
	{
		OFFSET	-82.8	-127.5	0.300001
		CHANNELS 3  Xrotation Yrotation Zrotation
		JOINT left_knee
		{
			OFFSET	-28.2	-396.7	2.2
			CHANNELS 3  Xrotation Yrotation Zrotation
			JOINT left_ankle
			{
				OFFSET	-11.7	-411.3	35.4
				CHANNELS 3  Xrotation Yrotation Zrotation
				JOINT left_toes
				{
					OFFSET	0	-60	-88.6
					CHANNELS 3  Xrotation Yrotation Zrotation
					JOINT left_foot_ee
					{
						OFFSET	-22.5	-16.5	-42.2
						CHANNELS 3  Xrotation Yrotation Zrotation
						End Site
						{
							OFFSET	1	0	0
						}
					}
				}
			}
		}
	}
	JOINT right_hip
	{
		OFFSET	82.8	-127.5	0.300001
		CHANNELS 3  Xrotation Yrotation Zrotation
		JOINT right_knee
		{
			OFFSET	28.2	-396.7	2.2
			CHANNELS 3  Xrotation Yrotation Zrotation
			JOINT right_ankle
			{
				OFFSET	11.7	-411.3	35.4
				CHANNELS 3  Xrotation Yrotation Zrotation
				JOINT right_toes
				{
					OFFSET	0	-60	-88.6
					CHANNELS 3  Xrotation Yrotation Zrotation
					JOINT right_foot_ee
					{
						OFFSET	22.5	-16.5	-42.2
						CHANNELS 3  Xrotation Yrotation Zrotation
						End Site
						{
							OFFSET	1	0	0
						}
					}
				}
			}
		}
	}
}
MOTION
Frames: 13
Frame Time: 0.02
2256.42 734.834 -1440.47 -1.33019 62.2987 -1.68964 -0.0418339 0.573598 2.82213 -0.037489 0.392932 2.85287 -0.0153574 -0.216234 2.87166 -0.0267844 0.239813 2.86979 -5.742 15.9443 -4.1537 -5.49021 32.5078 -1.27615 -0.0 0.0 -0.0 -4.48333 21.7102 -3.86912 2.00744 -21.0094 64.5642 1.56375 -37.76 0.534812 -19.5045 -1.07908 2.23641 -0.197592 20.9238 7.24626 -0.0 0.0 -0.0 12.5018 21.4853 -24.9758 -8.73692 22.2583 -65.4019 0.484903 13.5071 -0.0574231 15.4678 -0.283369 1.94958 1.83245 13.4533 -6.6216 0.0 0.0 0.0 -8.08965 39.6196 2.60425 4.32416 -0.202067 -0.632526 31.4903 -14.8502 -4.32606 -38.4531 0.0 0.0 -0.0 0.0 -0.0 6.4423 23.3179 -2.14958 -13.1855 -0.314576 -1.99459 33.9178 -4.8688 4.2926 -25.6984 0.0 0.0 0.0 0.0 0.0 
2253.78 732.337 -1436.81 -2.04314 61.7762 -0.687638 0.0656724 0.467683 2.76576 0.069881 0.290813 2.78989 0.0862591 -0.297971 2.78913 0.0754331 0.146082 2.80119 -5.30303 15.1475 -4.88319 -4.97851 31.5301 -2.31029 -0.0 0.0 -0.0 -3.93082 21.5069 -3.12043 3.44566 -20.7785 62.7215 1.72373 -40.4901 0.635791 -19.2597 -1.06092 2.21084 -0.433794 19.0324 5.08787 -0.0 0.0 -0.0 12.5236 22.6658 -24.9239 -10.9931 22.2753 -64.732 0.397782 11.1475 -0.0388191 15.2733 -0.283095 1.92473 1.68968 11.951 -6.32043 0.0 0.0 0.0 -8.16462 40.3589 2.86739 5.1025 -0.243493 -0.744709 32.7584 -14.9695 -4.46474 -38.5475 0.0 0.0 -0.0 0.0 -0.0 7.2702 23.5179 -2.48954 -13.8941 -0.318398 -2.10325 35.4724 -4.08557 4.44544 -26.3841 0.0 0.0 0.0 0.0 0.0 
2247.52 731.871 -1436.01 -2.38881 61.372 -0.290505 0.156257 0.497932 2.79344 0.160541 0.319242 2.81944 0.178436 -0.271761 2.8244 0.167349 0.177527 2.83188 -4.82744 14.6252 -5.32565 -4.4368 30.8584 -3.00391 -0.0 0.0 -0.0 -3.44793 21.7489 -2.37443 3.49713 -20.2631 61.8979 1.82446 -42.1028 0.702275 -19.1578 -1.0534 2.20018 -0.581526 17.3416 3.50255 -0.0 0.0 -0.0 12.7029 23.3557 -25.2734 -12.8869 22.2154 -64.6609 0.334101 9.39767 -0.0274613 14.9219 -0.282386 1.87985 1.52939 10.0441 -6.06601 0.0 0.0 0.0 -9.0001 40.8161 3.56497 5.52057 -0.266374 -0.804736 33.8278 -14.5454 -4.56341 -39.0825 0.0 0.0 -0.0 0.0 -0.0 7.00947 23.0108 -2.32841 -13.4657 -0.316247 -2.03755 36.0914 -3.34751 4.50617 -26.729 0.0 0.0 0.0 0.0 0.0 
2244.42 734.067 -1437.66 -2.36025 60.6151 -0.588775 0.182077 0.479062 2.85601 0.186566 0.296432 2.88068 0.203683 -0.305534 2.87973 0.192143 0.152904 2.89184 -5.51931 14.4078 -4.89948 -5.23903 30.1933 -2.39356 -0.0 0.0 -0.0 -3.35267 21.8967 -2.20749 3.5949 -19.7551 60.8614 1.9607 -44.1602 0.795428 -19.067 -1.04671 2.19066 -0.673077 15.849 2.31835 -0.0 0.0 -0.0 12.6481 22.4284 -25.233 -13.5948 22.4144 -64.3948 0.300908 8.47832 -0.0223041 14.5428 -0.281312 1.83144 1.4299 8.92778 -5.87271 0.0 0.0 0.0 -9.34181 41.1239 4.0214 5.71555 -0.277195 -0.832675 34.8434 -14.2512 -4.6577 -39.3224 0.0 0.0 -0.0 0.0 -0.0 6.76743 22.6274 -2.01952 -13.1304 -0.314222 -1.98615 35.591 -2.97626 4.45976 -27.0098 0.0 0.0 0.0 0.0 0.0 
2236.03 731.579 -1440.23 -3.35625 60.5929 0.283518 0.265081 0.361356 2.76042 0.269302 0.18504 2.7778 0.280118 -0.389677 2.75657 0.269518 0.0503869 2.7835 -6.56049 14.6443 -4.19993 -6.42538 30.1984 -1.32688 -0.0 0.0 -0.0 -2.98421 22.0304 -1.65662 4.16928 -19.4367 59.9066 2.13574 -46.608 0.92006 -19.0239 -1.04354 2.18615 -0.856589 13.8513 0.32758 -0.0 0.0 -0.0 12.3387 21.3735 -24.6087 -14.4049 22.5699 -65.206 0.294905 8.31158 -0.0214278 14.3958 -0.280809 1.81267 1.50531 8.36066 -6.62823 0.0 0.0 0.0 -9.53013 41.3437 4.25769 5.79133 -0.281427 -0.843524 34.3809 -13.743 -4.59673 -40.1391 0.0 0.0 -0.0 0.0 -0.0 6.58336 24.3422 -1.99549 -13.4983 -0.316428 -2.04255 36.6858 -2.41186 4.56524 -27.0243 0.0 0.0 0.0 0.0 0.0 
2223.03 727.858 -1441.88 -1.96556 59.2475 -1.19385 0.305568 0.36652 2.83751 0.310028 0.185294 2.85506 0.321155 -0.403291 2.83252 0.309963 0.0489235 2.86064 -5.91457 14.7891 -3.48349 -5.73354 29.8989 -0.755787 -0.0 0.0 -0.0 -3.39407 23.3559 -1.96036 4.439 -18.8773 59.4473 2.40687 -50.0052 1.1226 -18.51 -1.00602 2.13209 -0.664717 12.9486 1.14232 -0.0 0.0 -0.0 12.0811 19.6974 -24.1414 -18.3349 24.1615 -64.6619 0.405225 11.3507 -0.040271 14.0383 -0.279386 1.76703 1.35923 9.08655 -5.32513 0.0 0.0 0.0 -10.7552 40.9467 4.3742 4.63149 -0.218242 -0.676888 36.7838 -13.4485 -4.82398 -40.1293 0.0 0.0 -0.0 0.0 -0.0 5.35482 23.8389 -1.59003 -13.9431 -0.318612 -2.11076 37.4243 -2.58579 4.63285 -25.5552 0.0 0.0 0.0 0.0 0.0 
2217.69 727.211 -1443.8 -1.95679 58.2415 -1.10398 0.369314 0.434262 2.79347 0.373619 0.255698 2.81542 0.388036 -0.322888 2.80851 0.37705 0.124533 2.82425 -6.49721 14.352 -3.18569 -6.39278 28.9238 -0.376037 -0.0 0.0 -0.0 -3.27611 23.9052 -1.68387 4.36108 -18.4359 59.1069 2.47574 -50.7986 1.17567 -18.6271 -1.01453 2.14443 -0.789046 12.1476 0.0157245 -0.0 0.0 -0.0 12.1614 21.4368 -24.1954 -19.9338 25.8735 -64.591 0.394889 11.0684 -0.0382617 12.9786 -0.273494 1.63181 1.33304 6.45597 -6.26906 0.0 0.0 0.0 -11.2251 41.2511 4.54935 4.68579 -0.221124 -0.684717 37.5479 -12.7067 -4.87519 -40.1551 0.0 0.0 -0.0 0.0 -0.0 4.88617 23.9092 -1.55599 -13.5184 -0.316539 -2.04563 37.2238 -1.80942 4.61779 -26.0666 0.0 0.0 0.0 0.0 0.0 
2208.3 725.517 -1447.92 -1.86901 58.5618 -1.75439 0.382353 0.499401 2.81496 0.386705 0.31934 2.84101 0.404479 -0.2649 2.84659 0.393221 0.187802 2.85271 -6.17707 14.8104 -2.58922 -6.05373 29.3157 0.231753 -0.0 0.0 -0.0 -3.44085 24.388 -1.80628 3.43177 -18.0898 59.0349 2.70113 -53.218 1.35334 -18.8493 -1.03074 2.16781 -0.825893 11.9231 -0.314266 -0.0 0.0 -0.0 12.0458 20.0262 -24.0373 -20.8399 26.2819 -64.6714 0.373059 10.4705 -0.0341826 12.6667 -0.271284 1.59203 1.28809 5.80505 -6.23882 0.0 0.0 0.0 -11.5347 41.0149 4.98071 3.79936 -0.175 -0.55658 38.5048 -12.6977 -4.96291 -40.0204 0.0 0.0 -0.0 0.0 -0.0 4.09388 23.9157 -1.04768 -13.8165 -0.318044 -2.09134 37.5252 -2.08523 4.64415 -25.5246 0.0 0.0 0.0 0.0 0.0 
2200.33 722.837 -1451.75 -1.59927 58.1345 -2.08321 0.402477 0.562797 2.82607 0.406839 0.381901 2.85612 0.42788 -0.205469 2.87419 0.41644 0.250843 2.87059 -5.62168 14.9143 -2.78876 -5.43265 29.5971 -0.105249 -0.0 0.0 -0.0 -3.55162 24.1291 -2.01167 2.87839 -17.8969 58.9546 2.71337 -53.342 1.36315 -18.6597 -1.0169 2.14787 -0.82739 11.3492 -0.572647 -0.0 0.0 -0.0 12.2432 21.0717 -24.4129 -21.9976 26.9059 -64.5849 0.404579 11.3331 -0.0401439 12.4722 -0.269796 1.56723 1.29321 5.35355 -6.46343 0.0 0.0 0.0 -11.7064 40.4602 4.67905 2.94812 -0.132582 -0.432886 38.3232 -13.0335 -4.95576 -40.1922 0.0 0.0 -0.0 0.0 -0.0 3.31235 24.2174 -0.724656 -13.976 -0.318753 -2.11581 38.7093 -1.82424 4.75213 -25.0691 0.0 0.0 0.0 0.0 0.0 
2190.45 717.597 -1456.06 -1.1964 58.1068 -2.79268 0.355176 0.506929 2.79929 0.359476 0.327848 2.82584 0.377609 -0.254803 2.83336 0.36646 0.195685 2.83805 -6.29453 15.2275 -2.64347 -6.1775 30.1411 0.292367 -0.0 0.0 -0.0 -3.75822 23.1473 -2.50999 1.31859 -17.9459 59.0908 2.69527 -53.1583 1.34865 -17.588 -0.939915 2.03426 -0.794349 10.8193 -0.592219 -0.0 0.0 -0.0 12.3282 20.0274 -24.687 -21.7885 28.3386 -64.3795 0.285987 8.06359 -0.0201576 12.3452 -0.268779 1.55105 1.30721 4.94489 -6.72989 0.0 0.0 0.0 -11.2684 40.8404 4.29 1.45798 -0.0627786 -0.214916 38.3368 -12.3656 -4.93856 -40.1061 0.0 0.0 -0.0 0.0 -0.0 1.78937 25.4922 -0.225524 -14.5439 -0.320721 -2.20292 40.6201 -1.61307 4.91899 -23.6679 0.0 0.0 0.0 0.0 0.0 
2179.78 716.641 -1455.82 -0.496484 57.2013 -3.75844 0.330687 0.782474 2.8871 0.335126 0.597256 2.93099 0.368109 -0.0126265 2.99114 0.355919 0.459718 2.95566 -6.56843 14.9448 -2.70769 -6.48146 29.6888 0.247909 -0.0 0.0 -0.0 -3.46906 23.2188 -2.09309 0.260782 -17.6233 59.4459 2.58311 -51.9838 1.25958 -18.1609 -0.980805 2.09517 -0.920296 10.4322 -1.56439 -0.0 0.0 -0.0 12.296 19.559 -24.6452 -22.1304 28.9162 -64.3879 0.276938 7.81164 -0.0189081 12.0487 -0.266265 1.51326 1.37187 3.96543 -7.57774 0.0 0.0 0.0 -10.0321 40.4287 3.20766 -3.57113 0.130474 0.532438 38.107 -12.6923 -4.92646 -39.4048 0.0 0.0 -0.0 0.0 -0.0 0.833831 26.1936 0.35267 -14.7099 -0.321133 -2.22837 41.4032 -2.49967 4.98099 -21.8852 0.0 0.0 0.0 0.0 0.0 
2175.17 716.466 -1459.26 -0.0747229 56.9607 -4.01542 0.289458 0.864015 2.80882 0.293587 0.683607 2.85806 0.330155 0.0849493 2.93738 0.318533 0.547592 2.88718 -7.36374 14.6242 -2.40819 -7.36667 28.9528 0.701411 -0.0 0.0 -0.0 -3.46447 23.7138 -1.98159 -1.59217 -17.4148 59.4726 2.68016 -53.0037 1.33657 -18.4035 -0.998301 2.12084 -1.21534 9.36494 -3.93134 -0.0 0.0 -0.0 12.3051 20.464 -24.6019 -22.2942 29.577 -64.4994 0.250715 7.07986 -0.0155097 12.1661 -0.267284 1.52821 1.42056 4.08327 -7.85952 0.0 0.0 0.0 -6.99284 41.5672 0.206336 -8.80086 0.261086 1.3241 38.9809 -12.6454 -5.00442 -38.6896 0.0 0.0 -0.0 0.0 -0.0 0.328168 24.6628 0.119003 -14.7891 -0.321304 -2.24053 40.4408 -3.513 4.89717 -20.0126 0.0 0.0 0.0 0.0 0.0 
2168.44 711.817 -1462.52 -1.43545 58.0175 -2.64862 0.545691 0.707289 2.68793 0.549551 0.534881 2.72745 0.576846 -0.0221344 2.77927 0.566309 0.416909 2.74794 -7.43252 14.6887 -2.61911 -7.43859 29.2278 0.524002 -0.0 0.0 -0.0 -3.32339 23.4334 -1.84662 -3.05664 -17.0908 59.7999 2.55561 -51.6861 1.23796 -18.5625 -1.00982 2.13762 -1.10781 8.68871 -3.5409 -0.0 0.0 -0.0 12.8586 21.4522 -25.805 -20.5302 30.488 -63.9932 0.197225 5.58018 -0.00961176 11.8535 -0.264503 1.48838 1.52605 3.31839 -8.89453 0.0 0.0 0.0 -1.80637 42.8466 -3.07671 -12.8583 0.312358 1.94444 39.2433 -11.0383 -4.98557 -38.2042 0.0 0.0 -0.0 0.0 -0.0 -0.845453 25.4051 0.308304 -12.2662 -0.307616 -1.85372 41.4049 -4.80723 4.9772 -18.1722 0.0 0.0 0.0 0.0 0.0 
